# xmcd
# Copyright (C) 1995-1998 Ti Kan
#
# Track frame offsets:
#       150
#       10420
#       26046
#       37280
#       59885
#       79644
#       92884
#       104935
#       123043
#       136255
#       156695
#       175086
#
# Disc length: 2545 seconds
#
# Revision: 0
# Processed by: cddbd v1.4PL0 Copyright (c) Steve Scherf et al.
# Submitted via: CD-Transfer v1.0
#
DISCID=ae09ef0c
DTITLE=The Men From S.p.e.c.t.r.e. - Sugartown
DYEAR=2000
DGENRE=
TTITLE0=Love Gun
TTITLE1=The Crown
TTITLE2=Theme From " Me - The Target "
TTITLE3=Snakeeyed
TTITLE4=Beautiful Stranger
TTITLE5=Soul No. 1
TTITLE6=Way To San Bruno
TTITLE7=Säbelzahntiger
TTITLE8=Beat Box
TTITLE9=Playboy Implosion
TTITLE10=Viva Tirado
TTITLE11=Sugartown
EXTD=
EXTT0=
EXTT1=
EXTT2=
EXTT3=
EXTT4=
EXTT5=
EXTT6=
EXTT7=
EXTT8=
EXTT9=
EXTT10=
EXTT11=
PLAYORDER=
